<svg viewBox="0 0 820 300" xmlns="http://www.w3.org/2000/svg" role="img"
  aria-label="Kết quả quét dữ liệu cá nhân trong hệ thống file">
  <rect width="820" height="300" fill="#fff"/>
  <text x="14" y="24" font-family="'Segoe UI',system-ui,sans-serif" font-size="14" font-weight="700" fill="#16202A">Quét 49 file trong folder chia sẻ</text>
  <text x="14" y="52" font-family="'Segoe UI',system-ui,sans-serif" font-size="12.5" font-weight="700" fill="#A31621">Theo loại dữ liệu</text>
  <rect x="14" y="60" width="386" height="132" rx="6" fill="#FBF3F3" stroke="#EBD6D6"/>
  <text x="30" y="87" font-family="'Segoe UI',system-ui,sans-serif" font-size="11.5" fill="#39444F">Thư điện tử</text><rect x="162" y="76" width="180" height="14" rx="2" fill="#C9797E"/><text x="350" y="87" font-family="'Segoe UI',system-ui,sans-serif" font-size="11" font-weight="600" fill="#39444F">10 file</text><text x="30" y="115" font-family="'Segoe UI',system-ui,sans-serif" font-size="11.5" fill="#39444F">Số điện thoại</text><rect x="162" y="104" width="144" height="14" rx="2" fill="#C9797E"/><text x="314" y="115" font-family="'Segoe UI',system-ui,sans-serif" font-size="11" font-weight="600" fill="#39444F">8 file</text><text x="30" y="143" font-family="'Segoe UI',system-ui,sans-serif" font-size="11.5" fill="#39444F">Số định danh</text><rect x="162" y="132" width="108" height="14" rx="2" fill="#C9797E"/><text x="278" y="143" font-family="'Segoe UI',system-ui,sans-serif" font-size="11" font-weight="600" fill="#39444F">6 file</text><text x="30" y="171" font-family="'Segoe UI',system-ui,sans-serif" font-size="11.5" fill="#39444F">Số thẻ</text><rect x="162" y="160" width="36" height="14" rx="2" fill="#C9797E"/><text x="206" y="171" font-family="'Segoe UI',system-ui,sans-serif" font-size="11" font-weight="600" fill="#39444F">2 file</text>
  <text x="426" y="52" font-family="'Segoe UI',system-ui,sans-serif" font-size="12.5" font-weight="700" fill="#9A6B00">Theo folder</text>
  <rect x="420" y="60" width="386" height="176" rx="6" fill="#FBF7F0" stroke="#E6D9C4"/>
  <text x="436" y="87" font-family="'Segoe UI',system-ui,sans-serif" font-size="11.5" fill="#39444F">kinhdoanh</text><rect x="568" y="76" width="150" height="14" rx="2" fill="#E0B98A"/><text x="726" y="87" font-family="'Segoe UI',system-ui,sans-serif" font-size="11" font-weight="600" fill="#39444F">6 file</text><text x="436" y="115" font-family="'Segoe UI',system-ui,sans-serif" font-size="11.5" fill="#39444F">nhansu</text><rect x="568" y="104" width="100" height="14" rx="2" fill="#E0B98A"/><text x="676" y="115" font-family="'Segoe UI',system-ui,sans-serif" font-size="11" font-weight="600" fill="#39444F">4 file</text><text x="436" y="143" font-family="'Segoe UI',system-ui,sans-serif" font-size="11.5" fill="#39444F">tam</text><rect x="568" y="132" width="75" height="14" rx="2" fill="#E0B98A"/><text x="651" y="143" font-family="'Segoe UI',system-ui,sans-serif" font-size="11" font-weight="600" fill="#39444F">3 file</text><text x="436" y="171" font-family="'Segoe UI',system-ui,sans-serif" font-size="11.5" fill="#39444F">xuat_baocao</text><rect x="568" y="160" width="75" height="14" rx="2" fill="#E0B98A"/><text x="651" y="171" font-family="'Segoe UI',system-ui,sans-serif" font-size="11" font-weight="600" fill="#39444F">3 file</text><text x="436" y="199" font-family="'Segoe UI',system-ui,sans-serif" font-size="11.5" fill="#39444F">ketoan</text><rect x="568" y="188" width="75" height="14" rx="2" fill="#E0B98A"/><text x="651" y="199" font-family="'Segoe UI',system-ui,sans-serif" font-size="11" font-weight="600" fill="#39444F">3 file</text><text x="436" y="227" font-family="'Segoe UI',system-ui,sans-serif" font-size="11.5" fill="#39444F">congkhai</text><rect x="568" y="216" width="50" height="14" rx="2" fill="#E0B98A"/><text x="626" y="227" font-family="'Segoe UI',system-ui,sans-serif" font-size="11" font-weight="600" fill="#39444F">2 file</text>
  <rect x="14" y="206" width="386" height="78" rx="6" fill="#EEF1F4"/>
  <text x="30" y="228" font-family="'Segoe UI',system-ui,sans-serif" font-size="11.5" font-weight="700" fill="#16202A">Hai file đáng lo nhất</text>
  <text x="30" y="248" font-family="'Cascadia Code',Consolas,monospace" font-size="10.5" fill="#A31621">xuat_baocao/giaodich_loi_20260905.csv</text>
  <text x="30" y="266" font-family="'Cascadia Code',Consolas,monospace" font-size="10.5" fill="#A31621">tam/kiemtra_thanhtoan.csv</text>
  <text x="426" y="258" font-family="'Segoe UI',system-ui,sans-serif" font-size="11.5" fill="#39444F">Số thẻ thanh toán không nên tồn tại ở folder</text>
  <text x="426" y="276" font-family="'Segoe UI',system-ui,sans-serif" font-size="11.5" fill="#39444F">xuất báo cáo và folder tạm.</text>
</svg>