<svg viewBox="0 0 820 420" xmlns="http://www.w3.org/2000/svg" role="img"
  aria-label="AI Agent gọi bốn công cụ chỉ đọc">
  <rect width="820" height="420" rx="8" fill="#111217"/>
  <rect x="0" y="0" width="820" height="38" rx="8" fill="#181B1F"/>
  <rect x="0" y="30" width="820" height="8" fill="#181B1F"/>
  <circle cx="20" cy="19" r="5" fill="#FF9830"/>
  <text x="36" y="24" font-family="'Segoe UI',system-ui,sans-serif" font-size="12.5" font-weight="600" fill="#CCCCDC">AI Agent · tro_ly_dieu_tra.py</text>
  <rect x="12" y="48" width="796" height="30" rx="4" fill="#181B1F" stroke="#2C3235"/>
  <text x="24" y="68" font-family="'Cascadia Code',Consolas,monospace" font-size="11.5" fill="#73BF69">Nhiệm vụ: Dieu tra dia chi 198.51.100.23 va viet bao cao su co</text>
  <text x="24" y="98" font-family="'Segoe UI',system-ui,sans-serif" font-size="10.5" fill="#7B8087">Vòng gọi công cụ</text>
  <text x="506" y="98" font-family="'Segoe UI',system-ui,sans-serif" font-size="10.5" fill="#7B8087">Kết quả trả về cho mô hình</text>
  <rect x="160" y="108" width="290" height="44" rx="5" fill="#181B1F" stroke="#2C3235"/><text x="176" y="127" font-family="'Cascadia Code',Consolas,monospace" font-size="11.5" fill="#5794F2">truy_van_nhat_ky</text><text x="176" y="143" font-family="'Cascadia Code',Consolas,monospace" font-size="10" fill="#7B8087">nguon=firewall</text><line x1="452" y1="130" x2="490" y2="130" stroke="#2C3235" stroke-width="1.5"/><rect x="492" y="112" width="312" height="36" rx="5" fill="#1B2530"/><text x="506" y="135" font-family="'Segoe UI',system-ui,sans-serif" font-size="10.5" fill="#CCCCDC">524 dòng, từ 04/09 02:16</text><circle cx="120" cy="130" r="13" fill="#FF9830"/><text x="120" y="135" font-family="'Segoe UI',system-ui,sans-serif" font-size="12" font-weight="700" fill="#111217" text-anchor="middle">1</text><rect x="160" y="166" width="290" height="44" rx="5" fill="#181B1F" stroke="#2C3235"/><text x="176" y="185" font-family="'Cascadia Code',Consolas,monospace" font-size="11.5" fill="#5794F2">tinh_luu_luong</text><text x="176" y="201" font-family="'Cascadia Code',Consolas,monospace" font-size="10" fill="#7B8087">dia_chi=198.51.100.23</text><line x1="452" y1="188" x2="490" y2="188" stroke="#2C3235" stroke-width="1.5"/><rect x="492" y="170" width="312" height="36" rx="5" fill="#1B2530"/><text x="506" y="193" font-family="'Segoe UI',system-ui,sans-serif" font-size="10.5" fill="#CCCCDC">524 phiên · 418 byte/phiên</text><circle cx="120" cy="188" r="13" fill="#FF9830"/><text x="120" y="193" font-family="'Segoe UI',system-ui,sans-serif" font-size="12" font-weight="700" fill="#111217" text-anchor="middle">2</text><rect x="160" y="224" width="290" height="44" rx="5" fill="#181B1F" stroke="#2C3235"/><text x="176" y="243" font-family="'Cascadia Code',Consolas,monospace" font-size="11.5" fill="#5794F2">dem_theo_cua_so</text><text x="176" y="259" font-family="'Cascadia Code',Consolas,monospace" font-size="10" fill="#7B8087">phut=60</text><line x1="452" y1="246" x2="490" y2="246" stroke="#2C3235" stroke-width="1.5"/><rect x="492" y="228" width="312" height="36" rx="5" fill="#1B2530"/><text x="506" y="251" font-family="'Segoe UI',system-ui,sans-serif" font-size="10.5" fill="#CCCCDC">đúng 2 lần mỗi giờ, 262 cửa sổ</text><circle cx="120" cy="246" r="13" fill="#FF9830"/><text x="120" y="251" font-family="'Segoe UI',system-ui,sans-serif" font-size="12" font-weight="700" fill="#111217" text-anchor="middle">3</text><rect x="160" y="282" width="290" height="44" rx="5" fill="#181B1F" stroke="#2C3235"/><text x="176" y="301" font-family="'Cascadia Code',Consolas,monospace" font-size="11.5" fill="#5794F2">tra_ho_so</text><text x="176" y="317" font-family="'Cascadia Code',Consolas,monospace" font-size="10" fill="#7B8087">loai=quoc_gia</text><line x1="452" y1="304" x2="490" y2="304" stroke="#2C3235" stroke-width="1.5"/><rect x="492" y="286" width="312" height="36" rx="5" fill="#1B2530"/><text x="506" y="309" font-family="'Segoe UI',system-ui,sans-serif" font-size="10.5" fill="#CCCCDC">198.51.100.0/24 · Hà Lan</text><circle cx="120" cy="304" r="13" fill="#FF9830"/><text x="120" y="309" font-family="'Segoe UI',system-ui,sans-serif" font-size="12" font-weight="700" fill="#111217" text-anchor="middle">4</text>
  <rect x="12" y="348" width="796" height="60" rx="5" fill="#2A1B1D" stroke="#5A2A2E"/>
  <text x="28" y="370" font-family="'Segoe UI',system-ui,sans-serif" font-size="11.5" font-weight="700" fill="#E8756F">Ba lỗi AI Agent thường mắc</text>
  <text x="28" y="390" font-family="'Segoe UI',system-ui,sans-serif" font-size="10.5" fill="#CCCCDC">Bỏ sót nguồn dns nên không tìm ra tên miền · bỏ sót asset inventory · hallucination khi nêu mã lỗ hổng không có thật</text>
</svg>